<?xml version="1.0" standalone="no"?>
<!DOCTYPE svg PUBLIC "-//W3C//DTD SVG 20010904//EN"
 "http://www.w3.org/TR/2001/REC-SVG-20010904/DTD/svg10.dtd">
<svg version="1.0" xmlns="http://www.w3.org/2000/svg"
 width="50.000000pt" height="40.000000pt" viewBox="0 0 30.000000 30.000000"
 preserveAspectRatio="xMidYMid meet">
<metadata>
Created by potrace 1.16, written by Peter Selinger 2001-2019
</metadata>
<g transform="translate(0.000000,30.000000) scale(0.022059,-0.051724)"
fill="#000000" stroke="none">
<path d="M150 421 c-15 -30 -14 -31 41 -31 60 0 60 2 -4 -104 -22 -38 -43 -64
-45 -58 -2 7 13 38 32 71 20 32 36 61 36 65 0 3 -20 6 -44 6 -40 0 -47 -4 -66
-35 -19 -30 -20 -37 -8 -60 l14 -26 23 41 c28 50 22 64 -8 18 -22 -36 -28 -25
-9 17 8 18 19 25 40 25 15 0 28 -4 28 -8 0 -4 -13 -29 -30 -55 -33 -53 -35
-64 -17 -88 11 -15 21 -2 74 90 l61 106 -55 3 c-75 4 -57 22 23 22 l65 0 -29
-52 c-17 -29 -39 -69 -50 -88 -10 -19 -29 -52 -42 -73 -12 -21 -21 -40 -18
-42 2 -2 39 -5 82 -6 58 -1 80 2 87 12 16 25 10 29 -42 29 -60 0 -60 -4 3 103
23 39 43 67 45 60 2 -6 -12 -38 -32 -71 -19 -33 -35 -63 -35 -66 0 -3 20 -6
45 -6 42 0 46 2 65 40 18 35 19 43 7 60 -13 19 -15 17 -36 -21 -13 -22 -21
-43 -18 -46 3 -2 13 10 23 29 10 18 19 27 22 20 7 -22 -27 -62 -53 -62 -14 0
-25 3 -25 6 0 3 15 32 33 64 30 55 31 60 16 76 -16 15 -21 9 -78 -87 l-60
-104 57 -5 c73 -7 47 -22 -32 -18 l-57 3 52 90 c28 50 62 109 75 133 l25 42
-85 0 c-74 0 -87 -3 -96 -19z"/>
</g>
</svg>
